<svg xmlns="http://www.w3.org/2000/svg" xml:space="preserve" width="561.777" height="561.777" viewBox="0 0 148.637 148.637">
  <g transform="translate(-38.14 -42.903)">
    <path d="M141.705 155.01c1.437-.6 2.157-1.7 2.583-3.946.352-1.857.35-4.144-.007-9.16-.438-6.144-.137-12.866.642-14.321.204-.38.234-.387.444-.1.33.452.764 3.037.98 5.847.144 1.862.132 3.69-.046 7.49-.416 8.873-.238 11.44.904 13.015 1.363 1.882 4.346 1.906 5.296.043.724-1.418.306-2.791-1.081-3.557-.645-.355-.783-.53-.888-1.124-.358-2.02-.037-5.18.842-8.288.532-1.881 2.717-7.421 3.862-9.79.716-1.481.799-1.59.715-.944-.141 1.093-1.154 4.394-2.27 7.406-1.848 4.98-2.4 7.582-2.159 10.156l.128 1.361.882.634c1.194.857 1.636 1.845 1.513 3.378l-.09 1.116 2.493-.003c2.727-.003 4.066-.23 5.933-1.003 5.319-2.204 8.633-7.622 9.349-15.28.377-4.04-.072-7.225-1.933-13.698-1.482-5.157-1.876-6.91-2.11-9.372-.584-6.167 2.035-11.45 5.983-12.068 1.33-.208 2.1-.706 2.503-1.616.664-1.501-.004-3.1-1.587-3.8-.64-.283-1.055-.337-2.087-.27-1.898.121-3.24.84-5.16 2.76-3.26 3.264-4.958 7.76-4.958 13.127 0 3.625.537 6.42 2.38 12.383 1.28 4.143 1.84 6.874 1.969 9.613.237 5.023-.873 8.941-3.255 11.488-.951 1.017-2.75 2.261-2.961 2.05-.044-.044.209-.826.562-1.738 1.833-4.74 2.263-9.451 1.303-14.27-.203-1.018-1.033-3.836-1.844-6.261-2.435-7.28-3.156-9.862-3.892-13.935-.482-2.671-1.263-5.54-2.11-7.761-.444-1.164-.855-2.454-.913-2.866-.058-.413-.165-.75-.237-.75-.072 0-.574.267-1.115.593-1.37.825-3.983 1.65-5.674 1.792-2.679.224-5.76-.5-8.19-1.923-1.166-.684-1.148-.69-1.319.532-.056.401-.465 1.632-.909 2.734-1.083 2.691-1.524 4.271-2.46 8.808-.922 4.468-1.575 6.796-3.19 11.384-2.641 7.5-3.115 9.529-3.125 13.386-.004 1.81.09 3.14.298 4.206.714 3.665 2.499 7.806 4.172 9.684 1.354 1.519 1.784 1.766 3.285 1.889l1.296.106.004-1.151c.002-.741.122-1.41.334-1.878.31-.682 1.15-1.475 1.807-1.705.221-.078.323-.43.418-1.448.252-2.686-.371-5.88-2.152-11.021-1.216-3.513-2.005-6.244-1.99-6.884.01-.39.62.834 1.803 3.616 2.544 5.988 3.482 9.587 3.48 13.351-.002 2.272-.196 2.878-1.064 3.321-.883.45-1.264 1.036-1.353 2.08-.184 2.134 1.858 3.463 3.966 2.582zm-10.434-52.896c1.04-.7 2.727-1.606 4.122-2.213.597-.26.856-.448.672-.488-.68-.15-4.836 2.001-5.69 2.944-.489.541-.118.44.896-.243zm29.346.493c0-.308-2.651-2.031-3.969-2.579-2.602-1.082-2.417-.747.353.64 1.067.533 2.258 1.212 2.646 1.506.698.53.97.652.97.433zm-12.56-.872c3.45-.712 7.256-3.348 8.827-6.114.72-1.27 1.087-2.623 1.087-4.013 0-1.244-.4-2.903-.812-3.367-.213-.24-.212-.35.008-.793.141-.283.436-1.467.655-2.631.32-1.696.4-2.748.402-5.292.004-4.217-.21-4.715-1.718-3.985-1.015.491-2.798 2.068-4.293 3.796-.665.769-1.407 1.626-1.65 1.905l-.441.506-1.147-.3c-1.62-.426-5.106-.417-6.943.017-1.318.312-1.395.313-1.56.02-.094-.17-.754-1.003-1.465-1.85-1.909-2.276-4.33-4.254-5.206-4.254-.944 0-1.073.54-1.07 4.478.004 3.135.27 5.3.87 7.078.313.927.312.943-.078 1.711-.85 1.671-.918 3.645-.196 5.607.981 2.663 3.47 5.057 6.829 6.567 2.526 1.135 5.28 1.454 7.9.914zm-6.132-2.645c-.653-.284-1.24-.744-1.24-.974 0-.077.275-.025.612.115 1.116.467 2.412.269 3.225-.492.563-.528.497-.939-.324-2.026-.396-.524-.68-1.057-.63-1.184.173-.454 3.305-.496 3.751-.05.05.05-.27.62-.713 1.266-.776 1.134-.795 1.192-.544 1.678.386.747 1.636 1.183 2.711.945.451-.1.979-.24 1.173-.313.228-.085.125.088-.295.493-1.046 1.007-2.6 1.08-3.677.174l-.543-.457-.389.364c-.807.756-2.021.936-3.117.46zm.736-6.618c-.459-.925-1.338-1.89-1.926-2.114-.515-.195-.928-.041-1.396.522-.331.399-.412.423-.674.205-.164-.136-.458-.56-.653-.941-.322-.633-.404-.686-.913-.6a7.692 7.692 0 0 0-.912.21c-.194.064-.036-.086.351-.334 1.6-1.027 3.4-.99 4.986.102.96.66 1.683 2.065 1.596 3.096l-.057.666zm4.994-.026c.26-1.614 1.275-3.021 2.53-3.514.825-.323 2.506-.241 3.42.166.98.437 1.124.7.323.572-.515-.082-.665-.144-.965.42-.184.345-.488.767-.677.937-.33.299-.36.289-.829-.286-.409-.501-.563-.577-.965-.476-.672.169-1.928 1.377-2.309 2.221-.42.932-.683.912-.528-.04zm-13.002-6.053c-.052-.091-.242-.88-.421-1.752-.243-1.184-.328-2.381-.332-4.703-.003-1.714.051-3.173.12-3.243.347-.349 2.464 1.908 4.28 4.562l.97 1.42-.606.208c-.952.327-2.813 1.989-3.637 3.247-.153.234-.321.351-.374.26zm2.99-3.403c.315-.221.573-.486.573-.588 0-.418-3.075-4.325-3.56-4.523-.32-.13-.05 6.035.314 7.182.052.164.408-.069 1.088-.712.556-.526 1.27-1.138 1.584-1.359zm18.167 3c-.467-.79-2.685-2.793-3.369-3.04l-.619-.224.325-.63c.818-1.589 4.149-5.481 4.69-5.481.602 0 .541 4.432-.107 7.805-.219 1.14-.449 2.073-.51 2.073-.062 0-.246-.226-.41-.503zm.458-3.202c.317-2.376.388-4.938.137-4.938-.271 0-3.742 4.268-3.717 4.573.004.055.53.494 1.167.974.638.48 1.324 1.097 1.526 1.369.2.272.417.434.48.36.062-.073.245-1.125.407-2.338zm-26.103 16.403c.644-.292 1.845-.701 2.67-.91 1.391-.353 1.95-.676 1.167-.676-1.079 0-5.135 1.535-5.135 1.943 0 .236-.024.242 1.298-.357zm31.422.067c-.84-.659-3.635-1.65-4.66-1.652-.839-.002-.656.103 1.055.6.819.24 1.925.633 2.459.877 1.133.516 1.691.602 1.146.175zm-30.75-3.306c.938-.11 1.772-.27 1.852-.356.185-.197-2.735-.009-3.97.256-1.156.248-1.475.63-.364.436a60.007 60.007 0 0 1 2.482-.336zm32.073.254c0-.323-2.206-.72-3.957-.712-1.653.007-1.16.267.782.412.825.062 1.738.185 2.029.273.71.216 1.146.226 1.146.027z" style="fill:#fff;fill-opacity:1"/>
    <path d="M112.34 75.98a.37.37 0 0 0-.37.372l.233 76.974a.37.37 0 0 0 .373.37.37.37 0 0 0 .369-.372l-.233-76.974a.37.37 0 0 0-.373-.37z" style="baseline-shift:baseline;display:inline;overflow:visible;opacity:1;vector-effect:none;fill:#fff;fill-opacity:1;stroke-linecap:round;paint-order:stroke markers fill;enable-background:accumulate;stop-color:#000;stop-opacity:1"/>
    <path d="M82.216 155.15c0-.293-.153-.477-.524-.631-.711-.294-1.894-1.61-2.352-2.617-.297-.65-.375-1.16-.371-2.412.005-1.456.076-1.777.857-3.88 1.252-3.374 1.349-3.814 1.45-6.615.102-2.87-.042-4.056-1.088-8.908-.7-3.248-1.384-7.142-1.273-7.252.037-.038.369.904.736 2.092.8 2.591 1.9 5.54 3.282 8.8 1.194 2.817 2.014 5.265 2.283 6.816.114.657.171 2.81.14 5.296l-.053 4.19.664 1.348c.449.91.948 1.604 1.538 2.134 1.45 1.303 3.177 1.909 3.689 1.293.323-.39.053-.75-.74-.987-.976-.29-1.948-1.328-2.334-2.49-.44-1.323-.264-2.709.626-4.95 1.013-2.551 1.226-3.606 1.229-6.084.003-2.437-.316-4.396-1.071-6.574-.656-1.892-1.49-3.432-3.716-6.857-2.887-4.442-4.64-8.155-5.017-10.621-.16-1.048-.033-.887.522.664 1.451 4.052 3.827 7.707 8.051 12.383 3.704 4.1 4.664 5.95 5.28 10.17.581 3.973 1.299 5.544 3.178 6.956.935.702 2.8 1.4 3.742 1.4.744 0 1.204-.298 1.204-.78 0-.476-.37-.677-.968-.527-.48.12-1.755-.41-2.339-.97-.586-.564-1.109-1.692-1.22-2.632-.062-.52.048-1.584.295-2.855.75-3.868.255-7.013-1.568-9.963-1.014-1.64-2.299-3.019-4.519-4.849-4.237-3.492-6.55-5.989-7.822-8.442-.879-1.695-1.109-2.532-1.243-4.524-.103-1.526-.122-1.585-.509-1.531-.22.03-.697-.04-1.058-.158-3.171-1.03-3.954-5.693-1.358-8.086.852-.785 1.6-.998 2.895-.827l.85.113.806-2.428c2.398-7.232 2.232-13.197-.507-18.18-1.547-2.814-4.485-5.68-7.412-7.23-.476-.252-1.645.402-3.528 1.974-4.524 3.776-6.846 9.104-6.542 15.01.153 2.967.646 5.165 2.078 9.27l.527 1.51 1.019-.073c.79-.057 1.18.009 1.744.297 2.462 1.256 3.068 5.183 1.147 7.428-.79.923-1.415 1.235-2.471 1.235h-.854l-.037 1.434c-.02.789-.124 1.761-.23 2.161-.279 1.046-1.434 3.19-2.436 4.52-1.052 1.396-4.156 4.435-6.191 6.062-2.79 2.229-4.781 4.402-5.708 6.226-.62 1.222-1.196 3.37-1.294 4.828-.077 1.143-.003 2.067.306 3.838.353 2.02.38 2.477.206 3.415-.375 2.017-1.725 3.363-3.409 3.398-1.106.023-1.433.411-.844 1 .886.886 3.94-.09 5.5-1.757 1.457-1.557 1.955-2.866 2.513-6.601.576-3.857 1.623-5.84 5.126-9.712 4.832-5.34 6.833-8.382 8.458-12.856.706-1.943.777-1.694.177.615-.777 2.99-1.532 4.49-5.04 10.01-1.327 2.086-2.696 4.427-3.044 5.203-1.909 4.261-2.332 9.039-1.1 12.436.228.63.618 1.702.867 2.38.61 1.663.625 3.345.04 4.6-.457.983-1.49 1.949-2.313 2.164-.397.104-.53.241-.53.549 0 .714.46.82 1.581.364 1.985-.806 3.67-2.836 4.257-5.13.259-1.009.266-1.451.066-4.142-.33-4.435-.007-6.055 2.213-11.119 1.806-4.12 3.06-7.359 3.738-9.658.368-1.245.693-2.149.722-2.007.089.435-.47 3.592-1.194 6.741-1.08 4.7-1.285 6.102-1.277 8.731.007 2.67.292 4.075 1.359 6.718 1.336 3.313 1.456 5.033.482 6.961-.484.958-1.42 1.976-2.515 2.733-.295.204-.363.37-.27.662.418 1.32 3.548-.89 4.648-3.284.649-1.413.719-3.972.23-8.354-.478-4.267-.469-4.928.153-11.003.288-2.807.605-6.93.706-9.161.24-5.3.38-7.043.544-6.778.165.268.298 2.286.532 8.1.167 4.147.417 7.213.862 10.584.286 2.166.212 6.19-.17 9.25-.193 1.546-.35 3.296-.35 3.887 0 2.193.877 4.363 2.325 5.752 1.586 1.52 2.966 1.89 2.966.794zm-22.844-31.097c.653-.33 2.912-2.017 2.912-2.176 0-.063-.588-.078-1.306-.031-1.867.12-3.458-.385-4.68-1.484-2.043-1.837-2.351-3.749-1.162-7.208.743-2.164.991-4.366.639-5.672-.293-1.086-1.226-2.366-2.198-3.015-.926-.62-1.533-.722-1.869-.317-.322.387-.073.881.607 1.206.336.16.847.617 1.136 1.016 1.265 1.746 1.21 3.183-.24 6.318-1.664 3.596-1.87 6.035-.706 8.333 1.407 2.776 4.585 4.179 6.867 3.03zm37.58-.098c1.126-.571 2.45-1.986 3.017-3.224.55-1.201.727-3.15.426-4.702-.119-.611-.62-2.064-1.115-3.228-.723-1.701-.914-2.359-.971-3.351-.063-1.096-.014-1.344.437-2.205.337-.644.817-1.2 1.426-1.657 1.005-.75 1.163-1.238.501-1.54-.324-.147-.543-.123-.989.107-.91.471-2.11 1.788-2.621 2.879-.403.858-.47 1.236-.467 2.592.003 1.342.109 1.925.684 3.767.575 1.842.667 2.348.593 3.267-.163 2.029-1.394 3.71-3.398 4.64-.85.394-1.395.508-2.777.582l-1.72.091 1.033.834c1.6 1.294 2.713 1.759 3.997 1.669a5.358 5.358 0 0 0 1.944-.521zm-25.063-15.173c1.428-1.49 1.533-3.691.247-5.156-1.047-1.192-2.684-1.2-3.586-.018-.97 1.27-.962 3.72.014 5 .536.702.954.903 1.909.919.59.01.796-.099 1.416-.745zm-2.683-1.047c-.594-.287-.848-1.319-.583-2.374.366-1.454 1.077-1.874 1.743-1.028.72.917.616 2.783-.188 3.346-.445.311-.441.311-.972.056zm14.235 1.13c1.816-1.91 1.211-5.722-.973-6.132-1.002-.188-2.152.51-2.76 1.673-.637 1.22-.639 2.13-.005 3.38.586 1.157 1.398 1.752 2.39 1.752.59 0 .813-.112 1.348-.674zm-1.184-1.033c-.705-.283-.962-2.062-.453-3.131.496-1.039 1.21-1.041 1.703-.006.79 1.657 0 3.64-1.25 3.137z" style="fill:#fff;fill-opacity:1"/>
    <g aria-label="SQUIDS AND CATS" style="font-stretch:condensed;font-size:15.0746px;font-family:&quot;PT Sans Narrow&quot;;-inkscape-font-specification:&quot;PT Sans Narrow Condensed&quot;;fill:#30425a;stroke-width:.659666;stroke-linecap:round;paint-order:stroke markers fill">
      <path d="M64.57 147.095q-.332-.422-.875-.663-.527-.256-1.025-.256-.256 0-.527.045-.256.045-.468.181-.21.12-.361.332-.136.196-.136.512 0 .272.106.452.12.181.331.317.226.136.528.256.301.106.678.226.543.181 1.13.407.589.211 1.071.573t.799.905q.317.527.317 1.326 0 .92-.347 1.598-.332.663-.905 1.1-.572.438-1.311.649-.739.21-1.523.21-1.145 0-2.216-.391-1.07-.407-1.778-1.146l1.688-1.718q.392.482 1.025.814.648.316 1.281.316.287 0 .558-.06.271-.06.467-.196.211-.136.332-.362.12-.226.12-.542 0-.302-.15-.513-.15-.211-.437-.377-.272-.18-.694-.316-.407-.151-.934-.317-.513-.166-1.01-.392-.483-.226-.875-.573-.377-.361-.618-.859-.226-.513-.226-1.236 0-.89.362-1.523.362-.633.95-1.04.588-.407 1.326-.588.739-.196 1.493-.196.904 0 1.839.332.95.332 1.658.98zm8.411 7.9q-1.266 0-2.321-.362-1.055-.362-1.809-1.055-.739-.709-1.16-1.719-.408-1.025-.408-2.337 0-1.22.437-2.23.438-1.01 1.206-1.734.784-.724 1.84-1.116 1.07-.407 2.306-.407t2.291.407q1.055.392 1.824 1.116.769.708 1.191 1.718.437.995.437 2.201 0 .618-.135 1.161-.136.528-.362.965-.226.437-.513.784-.286.331-.573.557v.046l2.247-.046v2.05zm3.106-5.442q0-.694-.226-1.282-.211-.588-.618-1.01-.392-.422-.95-.648-.558-.241-1.221-.241-.648 0-1.206.241-.543.226-.95.648-.407.422-.633 1.01-.226.588-.226 1.282 0 .723.211 1.326.226.588.618 1.025.407.422.95.664.558.226 1.22.226.649 0 1.207-.226.558-.242.965-.664.407-.437.633-1.025.226-.603.226-1.326zm13.718 1.417q0 .964-.332 1.763-.317.784-.92 1.357-.603.558-1.462.874-.844.317-1.884.317-1.055 0-1.9-.317-.844-.316-1.432-.874-.587-.573-.904-1.357-.317-.799-.317-1.763v-6.648h2.563v6.437q0 .437.106.829.12.392.346.708.242.302.618.483.392.18.935.18t.92-.18q.391-.181.633-.483.24-.316.346-.708.106-.392.106-.83v-6.436h2.578v6.648zm2.08 4.025v-10.673h2.593v10.673zm14.758-5.367q0 1.402-.528 2.427-.512 1.01-1.371 1.673-.845.648-1.915.965-1.07.302-2.17.302h-3.98v-10.673h3.859q1.13 0 2.23.271 1.101.256 1.96.874.86.603 1.387 1.628.528 1.026.528 2.533zm-2.683 0q0-.904-.302-1.492-.286-.603-.784-.95-.482-.362-1.115-.513-.618-.15-1.281-.15h-1.282v6.24h1.221q.694 0 1.327-.15.648-.166 1.13-.528.498-.362.784-.965.302-.603.302-1.492zm10.024-2.533q-.331-.422-.874-.663-.528-.256-1.025-.256-.256 0-.528.045-.256.045-.467.181-.211.12-.362.332-.135.196-.135.512 0 .272.105.452.12.181.332.317.226.136.527.256.302.106.679.226.542.181 1.13.407.588.211 1.07.573.483.362.8.905.316.527.316 1.326 0 .92-.347 1.598-.331.663-.904 1.1-.573.438-1.312.649-.738.21-1.522.21-1.146 0-2.216-.391-1.07-.407-1.779-1.146l1.688-1.718q.392.482 1.026.814.648.316 1.28.316.287 0 .559-.06.271-.06.467-.196.211-.136.332-.362.12-.226.12-.542 0-.302-.15-.513-.151-.211-.438-.377-.271-.18-.693-.316-.407-.151-.935-.317-.512-.166-1.01-.392-.482-.226-.874-.573-.377-.361-.618-.859-.226-.513-.226-1.236 0-.89.362-1.523.361-.633.95-1.04.587-.407 1.326-.588.738-.196 1.492-.196.905 0 1.84.332.949.332 1.657.98z" style="font-weight:700;font-stretch:normal;font-family:&quot;Avenir Next&quot;;-inkscape-font-specification:&quot;Avenir Next Bold&quot;;fill:#fff" transform="scale(.8902 1.1233)"/>
      <path d="m129.33 154.995-1.266-3.06h-6.196l-1.311 3.06h-.362l4.628-10.673h.422l4.447 10.673zm-4.311-10.462-3.03 7.115h5.97zm14.577 10.462-7.658-10.251h-.045v10.25h-.332v-10.672h.468l7.673 10.235h.045v-10.235h.331v10.673zm12.602-5.337q0 1.387-.452 2.397-.452.995-1.251 1.658-.799.648-1.884.965-1.07.317-2.307.317h-3.03v-10.673h3.03q1.236 0 2.307.316 1.085.302 1.884.965.799.648 1.251 1.658.452 1.01.452 2.397zm-8.577-5.035v10.07h2.608q1.176 0 2.2-.286 1.041-.302 1.795-.905.753-.618 1.19-1.568.438-.95.438-2.276 0-1.326-.437-2.276-.438-.965-1.191-1.568-.754-.618-1.794-.904-1.025-.287-2.201-.287z" style="font-weight:275;font-stretch:normal;font-family:&quot;Avenir Next&quot;;-inkscape-font-specification:&quot;Avenir Next weight=275&quot;;fill:#fff" transform="scale(.8902 1.1233)"/>
      <path d="M167.544 153.517q-.708.814-1.748 1.297-1.04.467-2.397.467-1.236 0-2.291-.407-1.04-.407-1.81-1.146-.768-.753-1.205-1.794-.438-1.04-.438-2.29 0-1.282.438-2.322.452-1.04 1.236-1.764.784-.739 1.839-1.13 1.055-.393 2.276-.393 1.13 0 2.216.407 1.1.392 1.779 1.161l-1.749 1.749q-.362-.498-.95-.739-.587-.241-1.205-.241-.679 0-1.252.256-.557.241-.964.678-.407.438-.634 1.04-.226.589-.226 1.297 0 .724.226 1.327.227.603.619 1.04.407.422.964.663.558.241 1.221.241.77 0 1.342-.301.573-.302.92-.784l1.793 1.688zm8.156 1.478-.83-2.096h-4.13l-.784 2.096h-2.804l4.478-10.673h2.502l4.432 10.673zm-2.864-7.824-1.357 3.663h2.683zm10.28-.648v8.472h-2.577v-8.472h-3.015v-2.201h8.607v2.2zm9.83.572q-.333-.422-.875-.663-.528-.256-1.025-.256-.257 0-.528.045-.256.045-.467.181-.211.12-.362.332-.136.196-.136.512 0 .272.106.452.12.181.332.317.226.136.527.256.302.106.678.226.543.181 1.131.407.588.211 1.07.573.483.362.8.905.316.527.316 1.326 0 .92-.347 1.598-.331.663-.904 1.1-.573.438-1.312.649-.738.21-1.522.21-1.146 0-2.216-.391-1.07-.407-1.78-1.146l1.69-1.718q.391.482 1.024.814.649.316 1.282.316.286 0 .557-.06.272-.06.468-.196.21-.136.331-.362.121-.226.121-.542 0-.302-.15-.513-.152-.211-.438-.377-.271-.18-.693-.316-.407-.151-.935-.317-.513-.166-1.01-.392-.482-.226-.874-.573-.377-.361-.618-.859-.226-.513-.226-1.236 0-.89.361-1.523.362-.633.95-1.04.588-.407 1.327-.588.738-.196 1.492-.196.904 0 1.84.332.949.332 1.657.98z" style="font-weight:700;font-stretch:normal;font-family:&quot;Avenir Next&quot;;-inkscape-font-specification:&quot;Avenir Next Bold&quot;;fill:#fff" transform="scale(.8902 1.1233)"/>
    </g>
  </g>
</svg>
